<?xml version="1.0" encoding="UTF-8" standalone="no"?>
<svg
   width="1926"
   height="852"
   xml:space="preserve"
   overflow="hidden"
   version="1.1"
   id="svg40"
   sodipodi:docname="data_tensor.svg"
   inkscape:export-filename="data_tensor.pdf"
   inkscape:export-xdpi="96"
   inkscape:export-ydpi="96"
   inkscape:version="1.3 (0e150ed6c4, 2023-07-21)"
   xmlns:inkscape="http://www.inkscape.org/namespaces/inkscape"
   xmlns:sodipodi="http://sodipodi.sourceforge.net/DTD/sodipodi-0.dtd"
   xmlns="http://www.w3.org/2000/svg"
   xmlns:svg="http://www.w3.org/2000/svg"><defs
     id="defs40" /><sodipodi:namedview
     id="namedview40"
     pagecolor="#ffffff"
     bordercolor="#000000"
     borderopacity="0.25"
     inkscape:showpageshadow="2"
     inkscape:pageopacity="0.0"
     inkscape:pagecheckerboard="0"
     inkscape:deskcolor="#d1d1d1"
     inkscape:zoom="0.55919003"
     inkscape:cx="963"
     inkscape:cy="426.50975"
     inkscape:window-width="1858"
     inkscape:window-height="1057"
     inkscape:window-x="-8"
     inkscape:window-y="-8"
     inkscape:window-maximized="1"
     inkscape:current-layer="svg40" /><g
     transform="translate(-797 -40)"
     id="g40"><path
       d="M806.5 346.5 1045 271.5 1283.5 346.5 1045 421.5Z"
       stroke="#D0CECE"
       stroke-width="4.58333"
       stroke-miterlimit="8"
       fill="#ED7D31"
       fill-rule="evenodd"
       fill-opacity="0.419608"
       id="path1" /><path
       d="M1044.5 271 1283 195.5 1521.5 271 1283 346.5Z"
       stroke="#D0CECE"
       stroke-width="4.58333"
       stroke-miterlimit="8"
       fill="#FFC000"
       fill-rule="evenodd"
       fill-opacity="0.419608"
       id="path2" /><path
       d="M1044.5 422 1283 346.5 1521.5 422 1283 497.5Z"
       stroke="#D0CECE"
       stroke-width="4.58333"
       stroke-miterlimit="8"
       fill="#4472C4"
       fill-rule="evenodd"
       fill-opacity="0.419608"
       id="path3" /><path
       d="M1283.5 346.5 1522 271.5 1760.5 346.5 1522 421.5Z"
       stroke="#D0CECE"
       stroke-width="4.58333"
       stroke-miterlimit="8"
       fill="#70AD47"
       fill-rule="evenodd"
       fill-opacity="0.419608"
       id="path4" /><path
       d="M1283.5 196 1522 120.5 1760.5 196 1522 271.5Z"
       stroke="#D0CECE"
       stroke-width="4.58333"
       stroke-miterlimit="8"
       fill="#ED7D31"
       fill-rule="evenodd"
       fill-opacity="0.419608"
       id="path5" /><path
       d="M1521.5 120.5 1760.5 45.4999 1999.5 120.5 1760.5 195.5Z"
       stroke="#D0CECE"
       stroke-width="4.58333"
       stroke-miterlimit="8"
       fill="#FFC000"
       fill-rule="evenodd"
       fill-opacity="0.419608"
       id="path6" /><path
       d="M1521.5 271 1760.5 195.5 1999.5 271 1760.5 346.5Z"
       stroke="#D0CECE"
       stroke-width="4.58333"
       stroke-miterlimit="8"
       fill="#4472C4"
       fill-rule="evenodd"
       fill-opacity="0.419608"
       id="path7" /><path
       d="M1760.5 196 1999 120.5 2237.5 196 1999 271.5Z"
       stroke="#D0CECE"
       stroke-width="4.58333"
       stroke-miterlimit="8"
       fill="#70AD47"
       fill-rule="evenodd"
       fill-opacity="0.419608"
       id="path8" /><path
       d="M1283.5 497 1522 421.5 1760.5 497 1522 572.5Z"
       stroke="#D0CECE"
       stroke-width="4.58333"
       stroke-miterlimit="8"
       fill="#ED7D31"
       fill-rule="evenodd"
       fill-opacity="0.419608"
       id="path9" /><path
       d="M1521.5 422 1760.5 346.5 1999.5 422 1760.5 497.5Z"
       stroke="#D0CECE"
       stroke-width="4.58333"
       stroke-miterlimit="8"
       fill="#FFC000"
       fill-rule="evenodd"
       fill-opacity="0.419608"
       id="path10" /><path
       d="M1521.5 572.5 1760.5 497.5 1999.5 572.5 1760.5 647.5Z"
       stroke="#D0CECE"
       stroke-width="4.58333"
       stroke-miterlimit="8"
       fill="#4472C4"
       fill-rule="evenodd"
       fill-opacity="0.419608"
       id="path11" /><path
       d="M1760.5 497 1999 421.5 2237.5 497 1999 572.5Z"
       stroke="#D0CECE"
       stroke-width="4.58333"
       stroke-miterlimit="8"
       fill="#70AD47"
       fill-rule="evenodd"
       fill-opacity="0.419608"
       id="path12" /><path
       d="M1760.5 346.5 1999 271.5 2237.5 346.5 1999 421.5Z"
       stroke="#D0CECE"
       stroke-width="4.58333"
       stroke-miterlimit="8"
       fill="#ED7D31"
       fill-rule="evenodd"
       fill-opacity="0.419608"
       id="path13" /><path
       d="M1999.5 271 2238 195.5 2476.5 271 2238 346.5Z"
       stroke="#D0CECE"
       stroke-width="4.58333"
       stroke-miterlimit="8"
       fill="#FFC000"
       fill-rule="evenodd"
       fill-opacity="0.419608"
       id="path14" /><path
       d="M1999.5 422 2238 346.5 2476.5 422 2238 497.5Z"
       stroke="#D0CECE"
       stroke-width="4.58333"
       stroke-miterlimit="8"
       fill="#4472C4"
       fill-rule="evenodd"
       fill-opacity="0.419608"
       id="path15" /><path
       d="M2237.5 346.5 2476 271.5 2714.5 346.5 2476 421.5Z"
       stroke="#D0CECE"
       stroke-width="4.58333"
       stroke-miterlimit="8"
       fill="#70AD47"
       fill-rule="evenodd"
       fill-opacity="0.419608"
       id="path16" /><path
       d="M0 239 75.2494 0 315 0 239.751 239Z"
       stroke="#D0CECE"
       stroke-width="4.58333"
       stroke-miterlimit="8"
       fill="#4472C4"
       fill-rule="evenodd"
       fill-opacity="0.419608"
       transform="matrix(1.83697e-16 1 1 -1.83697e-16 1760.5 572.5)"
       id="path17" /><path
       d="M0 238 74.9342 0 315 0 240.066 238Z"
       stroke="#D0CECE"
       stroke-width="4.58333"
       stroke-miterlimit="8"
       fill="#70AD47"
       fill-rule="evenodd"
       fill-opacity="0.419608"
       transform="matrix(1.83697e-16 1 1 -1.83697e-16 1999.5 497.5)"
       id="path18" /><path
       d="M0 239 75.2494 0 315 0 239.751 239Z"
       stroke="#D0CECE"
       stroke-width="4.58333"
       stroke-miterlimit="8"
       fill="#4472C4"
       fill-rule="evenodd"
       fill-opacity="0.419608"
       transform="matrix(1.83697e-16 1 1 -1.83697e-16 2237.5 421.5)"
       id="path19" /><path
       d="M0 238 74.9341 0 315 0 240.066 238Z"
       stroke="#D0CECE"
       stroke-width="4.58333"
       stroke-miterlimit="8"
       fill="#70AD47"
       fill-rule="evenodd"
       fill-opacity="0.419608"
       transform="matrix(1.83697e-16 1 1 -1.83697e-16 2476.5 346.5)"
       id="path20" /><path
       d="M1521.5 572.5 1760.5 647.749 1760.5 887.5 1521.5 812.251Z"
       stroke="#D0CECE"
       stroke-width="4.58333"
       stroke-miterlimit="8"
       fill="#4472C4"
       fill-rule="evenodd"
       fill-opacity="0.419608"
       id="path21" /><path
       d="M1283.5 497.5 1521.5 572.434 1521.5 812.5 1283.5 737.566Z"
       stroke="#D0CECE"
       stroke-width="4.58333"
       stroke-miterlimit="8"
       fill="#ED7D31"
       fill-rule="evenodd"
       fill-opacity="0.419608"
       id="path22" /><path
       d="M1044.5 421.5 1283.5 496.749 1283.5 736.5 1044.5 661.251Z"
       stroke="#D0CECE"
       stroke-width="4.58333"
       stroke-miterlimit="8"
       fill="#4472C4"
       fill-rule="evenodd"
       fill-opacity="0.419608"
       id="path23" /><path
       d="M806.5 346.5 1044.5 421.434 1044.5 661.5 806.5 586.566Z"
       stroke="#D0CECE"
       stroke-width="4.58333"
       stroke-miterlimit="8"
       fill="#ED7D31"
       fill-rule="evenodd"
       fill-opacity="0.419608"
       id="path24" /><path
       d="M1284.5 497 1761.5 346.5 2238.5 497 1761.5 647.5Z"
       stroke="#172C51"
       stroke-width="4.58333"
       stroke-miterlimit="8"
       fill="#4472C4"
       fill-rule="evenodd"
       fill-opacity="0"
       id="path25" /><path
       d="M1760.5 348 2237.5 197.5 2714.5 348 2237.5 498.5Z"
       stroke="#172C51"
       stroke-width="4.58333"
       stroke-miterlimit="8"
       fill="#4472C4"
       fill-rule="evenodd"
       fill-opacity="0"
       id="path26" /><path
       d="M805.5 346 1282.5 195.5 1759.5 346 1282.5 496.5Z"
       stroke="#172C51"
       stroke-width="4.58333"
       stroke-miterlimit="8"
       fill="#4472C4"
       fill-rule="evenodd"
       fill-opacity="0"
       id="path27" /><path
       d="M1282.5 194.5 1759.5 43.5002 2236.5 194.5 1759.5 345.5Z"
       stroke="#172C51"
       stroke-width="4.58333"
       stroke-miterlimit="8"
       fill="#4472C4"
       fill-rule="evenodd"
       fill-opacity="0"
       id="path28" /><path
       d="M0 475 150.582 0 391 0 240.418 475Z"
       stroke="#172C51"
       stroke-width="4.58333"
       stroke-miterlimit="8"
       fill="#4472C4"
       fill-rule="evenodd"
       fill-opacity="0"
       transform="matrix(6.12323e-17 1 1 -6.12323e-17 2239.5 347.5)"
       id="path29" /><path
       d="M0 475 150.582 0 391 0 240.418 475Z"
       stroke="#172C51"
       stroke-width="4.58333"
       stroke-miterlimit="8"
       fill="#4472C4"
       fill-rule="evenodd"
       fill-opacity="0"
       transform="matrix(6.12323e-17 1 1 -6.12323e-17 1763.5 494.5)"
       id="path30" /><path
       d="M1285.5 498.5 1760.5 648.697 1760.5 888.5 1285.5 738.303Z"
       stroke="#172C51"
       stroke-width="4.58333"
       stroke-miterlimit="8"
       fill="#4472C4"
       fill-rule="evenodd"
       fill-opacity="0"
       id="path31" /><path
       d="M808.5 347.5 1282.5 498.082 1282.5 738.5 808.5 587.918Z"
       stroke="#172C51"
       stroke-width="4.58333"
       stroke-miterlimit="8"
       fill="#4472C4"
       fill-rule="evenodd"
       fill-opacity="0"
       id="path32" /><path
       d="M807 396 1759.94 692.893"
       stroke="#172C51"
       stroke-width="2.29167"
       stroke-miterlimit="8"
       fill="none"
       fill-rule="evenodd"
       id="path33" /><path
       d="M806 449 1758.94 745.893"
       stroke="#172C51"
       stroke-width="2.29167"
       stroke-miterlimit="8"
       fill="none"
       fill-rule="evenodd"
       id="path34" /><path
       d="M809 499 1761.93 795.893"
       stroke="#172C51"
       stroke-width="2.29167"
       stroke-miterlimit="8"
       fill="none"
       fill-rule="evenodd"
       id="path35" /><path
       d="M805 542 1757.93 838.893"
       stroke="#172C51"
       stroke-width="2.29167"
       stroke-miterlimit="8"
       fill="none"
       fill-rule="evenodd"
       id="path36" /><path
       d="M0 0 952.935 296.893"
       stroke="#172C51"
       stroke-width="2.29167"
       stroke-miterlimit="8"
       fill="none"
       fill-rule="evenodd"
       transform="matrix(-1 0 0 1 2713.94 395)"
       id="path37" /><path
       d="M0 0 952.935 296.893"
       stroke="#172C51"
       stroke-width="2.29167"
       stroke-miterlimit="8"
       fill="none"
       fill-rule="evenodd"
       transform="matrix(-1 0 0 1 2712.93 449)"
       id="path38" /><path
       d="M0 0 952.935 296.893"
       stroke="#172C51"
       stroke-width="2.29167"
       stroke-miterlimit="8"
       fill="none"
       fill-rule="evenodd"
       transform="matrix(-1 0 0 1 2714.94 498)"
       id="path39" /><path
       d="M0 0 952.935 296.893"
       stroke="#172C51"
       stroke-width="2.29167"
       stroke-miterlimit="8"
       fill="none"
       fill-rule="evenodd"
       transform="matrix(-1 0 0 1 2711.93 542)"
       id="path40" /></g></svg>
